<svg width="16" height="16" viewBox="0 0 16 16" fill="none" xmlns="http://www.w3.org/2000/svg">
<path d="M4 7.33337C4 5.44776 4 4.50495 4.58579 3.91916C5.17157 3.33337 6.11438 3.33337 8 3.33337H10C11.8856 3.33337 12.8284 3.33337 13.4142 3.91916C14 4.50495 14 5.44776 14 7.33337V10.6667C14 12.5523 14 13.4951 13.4142 14.0809C12.8284 14.6667 11.8856 14.6667 10 14.6667H8C6.11438 14.6667 5.17157 14.6667 4.58579 14.0809C4 13.4951 4 12.5523 4 10.6667V7.33337Z" stroke="#2ABDBB" stroke-width="1.5"/>
<path d="M4 12.6667C2.89543 12.6667 2 11.7713 2 10.6667V6.66671C2 4.15255 2 2.89547 2.78105 2.11442C3.5621 1.33337 4.81918 1.33337 7.33333 1.33337H10C11.1046 1.33337 12 2.2288 12 3.33337" stroke="#2ABDBB" stroke-width="1.5"/>
</svg>
