<svg width="17" height="16" viewBox="0 0 17 16" fill="none" xmlns="http://www.w3.org/2000/svg">
<path d="M16.3429 6.15385C16.0065 6.15385 15.7275 5.87487 15.7275 5.53846V1.23077H11.4198C11.0834 1.23077 10.8044 0.951795 10.8044 0.615385C10.8044 0.278974 11.0834 0 11.4198 0H16.3429C16.6793 0 16.9583 0.278974 16.9583 0.615385V5.53846C16.9583 5.87487 16.6793 6.15385 16.3429 6.15385Z" fill="black"/>
<path d="M6.4972 15.9976H1.57412C1.23771 15.9976 0.95874 15.7186 0.95874 15.3822V10.4591C0.95874 10.1227 1.23771 9.84375 1.57412 9.84375C1.91054 9.84375 2.18951 10.1227 2.18951 10.4591V14.7668H6.4972C6.83361 14.7668 7.11259 15.0458 7.11259 15.3822C7.11259 15.7186 6.83361 15.9976 6.4972 15.9976Z" fill="black"/>
<path d="M10.1895 7.38256C10.0336 7.38256 9.87771 7.32513 9.75463 7.20205C9.51668 6.9641 9.51668 6.57026 9.75463 6.33231L15.9085 0.178462C16.1464 -0.0594872 16.5403 -0.0594872 16.7782 0.178462C17.0162 0.41641 17.0162 0.810256 16.7782 1.04821L10.6244 7.20205C10.5013 7.32513 10.3454 7.38256 10.1895 7.38256Z" fill="black"/>
<path d="M1.57403 15.9998C1.41813 15.9998 1.26223 15.9423 1.13915 15.8192C0.901206 15.5813 0.901206 15.1874 1.13915 14.9495L7.293 8.79565C7.53095 8.5577 7.9248 8.5577 8.16274 8.79565C8.40069 9.0336 8.40069 9.42744 8.16274 9.66539L2.0089 15.8192C1.88582 15.9423 1.72992 15.9998 1.57403 15.9998Z" fill="black"/>
</svg>
