<svg width="16" height="16" viewBox="0 0 16 16" fill="none" xmlns="http://www.w3.org/2000/svg">
<path d="M14.77 6.76801C14.77 6.4316 14.4911 6.15263 14.1546 6.15263L9.84695 6.15263V1.84494C9.84695 1.50853 9.56798 1.22955 9.23157 1.22955C8.89515 1.22955 8.61618 1.50853 8.61618 1.84494L8.61618 6.76801C8.61618 7.10442 8.89515 7.3834 9.23157 7.3834L14.1546 7.3834C14.4911 7.3834 14.77 7.10442 14.77 6.76801Z" fill="black"/>
<path d="M16.0008 0.614554C16.0008 0.458656 15.9433 0.302759 15.8202 0.179682C15.5823 -0.0582665 15.1885 -0.0582665 14.9505 0.179682L8.79666 6.33353C8.55871 6.57148 8.55871 6.96532 8.79666 7.20327C9.0346 7.44122 9.42845 7.44122 9.6664 7.20327L15.8202 1.04943C15.9433 0.926348 16.0008 0.770451 16.0008 0.614554Z" fill="black"/>
<path d="M7.38254 14.1559V9.23282C7.38254 8.89641 7.10357 8.61743 6.76716 8.61743H1.84408C1.50767 8.61743 1.2287 8.89641 1.2287 9.23282C1.2287 9.56923 1.50767 9.8482 1.84408 9.8482H6.15178V14.1559C6.15178 14.4923 6.43075 14.7713 6.76716 14.7713C7.10357 14.7713 7.38254 14.4923 7.38254 14.1559Z" fill="black"/>
<path d="M7.3825 9.23278C7.3825 9.07688 7.32507 8.92098 7.20199 8.79791C6.96404 8.55996 6.57019 8.55996 6.33225 8.79791L0.178401 14.9518C-0.0595482 15.1897 -0.0595482 15.5835 0.178401 15.8215C0.416349 16.0594 0.810195 16.0594 1.04814 15.8215L7.20199 9.66765C7.32507 9.54457 7.3825 9.38868 7.3825 9.23278Z" fill="black"/>
</svg>
